<svg xmlns="http://www.w3.org/2000/svg" xmlns:xlink="http://www.w3.org/1999/xlink" width="1em" height="1em" preserveAspectRatio="xMidYMid meet" viewBox="0 0 24 24" style="-ms-transform: rotate(360deg); -webkit-transform: rotate(360deg); transform: rotate(360deg);"><g fill="none" fill-rule="evenodd"><path d="M0 0h24v24H0z"/><path fill="currentColor" fill-rule="nonzero" d="m12.935 2.878l7.181 3.796c1.066.563 1.066 2.09 0 2.652L18.842 10l1.274.674c1.066.563 1.066 2.09 0 2.652L18.842 14l1.274.674c1.066.563 1.066 2.09 0 2.652l-7.181 3.796a2 2 0 0 1-1.87 0l-7.181-3.796c-1.066-.563-1.066-2.089 0-2.652L5.159 14l-1.275-.674c-1.066-.563-1.066-2.089 0-2.652L5.159 10l-1.275-.674c-1.066-.563-1.066-2.089 0-2.652l7.181-3.796a2 2 0 0 1 1.87 0Zm3.767 12.253l-3.767 1.991a2 2 0 0 1-1.87 0l-3.767-1.99L5.655 16L12 19.354L18.346 16l-1.644-.869Zm0-4l-3.767 1.992a2 2 0 0 1-1.707.076l-.163-.076l-3.767-1.992l-1.643.87L12 15.353L18.346 12l-1.644-.869ZM12 4.646L5.655 8L12 11.354L18.346 8L12 4.646Z"/></g></svg>